<svg width="113" height="113" fill="none" xmlns="http://www.w3.org/2000/svg"><path d="M0 0h113v113H0V0z" fill="#2B268E"/><path fill-rule="evenodd" clip-rule="evenodd" d="M85.187 33.739a6.244 6.244 0 11-6.297 6.243 6.262 6.262 0 016.297-6.243zm3.53 33.751a11.382 11.382 0 11-11.51 11.364 11.417 11.417 0 0111.51-11.365zm-29.299 8.487a6.805 6.805 0 11-6.877 6.804 6.843 6.843 0 016.877-6.805z" fill="#fff"/><path fill-rule="evenodd" clip-rule="evenodd" d="M21.993 81.28a9.284 9.284 0 11-9.374 9.265 9.32 9.32 0 019.374-9.266zm55.775-29.77a5.32 5.32 0 11-5.43 5.32 5.429 5.429 0 015.43-5.32zm3.637-39.38a6.858 6.858 0 11-6.913 6.86 6.895 6.895 0 016.913-6.86z" fill="#E54323"/><path fill-rule="evenodd" clip-rule="evenodd" d="M15.569 9.633a4.796 4.796 0 11-4.85 4.796 4.831 4.831 0 014.85-4.796z" fill="#fff"/><path fill-rule="evenodd" clip-rule="evenodd" d="M45.773 9a5.538 5.538 0 11-5.592 5.538A5.555 5.555 0 0145.773 9zM75.67 93.748a4.704 4.704 0 11-4.742 4.705 4.742 4.742 0 014.741-4.705z" fill="#E54323"/><path fill-rule="evenodd" clip-rule="evenodd" d="M99.394 49.555a6.46 6.46 0 11-6.515 6.443 6.479 6.479 0 016.515-6.443zM14.013 44.18A4.959 4.959 0 119 49.14a4.995 4.995 0 015.013-4.959zm53.223-2.026a3.257 3.257 0 11-3.294 3.257 3.293 3.293 0 013.294-3.257zm32.339-16.577a5.788 5.788 0 015.617 6.96 5.789 5.789 0 01-7.912 4.17 5.79 5.79 0 01-3.55-5.357 5.81 5.81 0 015.845-5.773z" fill="#fff"/><path fill-rule="evenodd" clip-rule="evenodd" d="M45.519 95.069a4.868 4.868 0 11-4.922 4.868 4.904 4.904 0 014.922-4.868zm55.684-1.611a4.09 4.09 0 11-4.126 4.09 4.11 4.11 0 014.126-4.09zM97.892 9.905a3.384 3.384 0 11-3.42 3.384 3.4 3.4 0 013.42-3.384zM15.678 64.503a5.899 5.899 0 11-5.954 5.882 5.918 5.918 0 015.954-5.882zm23.888 7.112a3.782 3.782 0 11-3.819 3.746 3.8 3.8 0 013.819-3.782m-3.927-47.866a9.466 9.466 0 013.51 13.011 9.682 9.682 0 01-13.138 3.493 9.482 9.482 0 01-3.529-13.011 9.7 9.7 0 0113.157-3.493zm28.195-4.977a8.306 8.306 0 11-8.379 8.307 8.343 8.343 0 018.379-8.307z" fill="#E54323"/><path fill-rule="evenodd" clip-rule="evenodd" d="M51.871 46.985a10.858 10.858 0 11-.217 21.715 10.858 10.858 0 01.217-21.715z" fill="#fff"/><path fill-rule="evenodd" clip-rule="evenodd" d="M29.378 49.157a6.894 6.894 0 11-6.968 6.895 6.93 6.93 0 016.968-6.895z" fill="#E54323"/><path fill-rule="evenodd" clip-rule="evenodd" d="M23.314 90.31l-6.008-19.364 12.957-12.668a1.81 1.81 0 00.561-1.267s.49-17.391.634-22.712l32.303-5.428-.616-3.62-33.913 5.664a1.81 1.81 0 00-1.556 1.81l-.652 23.526-13.229 12.903a1.81 1.81 0 00-.47 1.81l6.334 20.467 3.655-1.122z" fill="#E54323"/><path fill-rule="evenodd" clip-rule="evenodd" d="M62.06 82.093l-6.551-18.64 29.462 19.78a1.9 1.9 0 001.502.272 1.81 1.81 0 001.194-.923l14.152-25.86a1.81 1.81 0 00-.362-2.245L87.613 41.81l12.07-8.017-2.08-3.077-14.08 9.374a1.809 1.809 0 00-.832 1.394 1.808 1.808 0 00.597 1.502l14.477 13.247L85.333 78.98 52.939 57.264a1.9 1.9 0 00-2.19 0 1.81 1.81 0 00-.633 2.081l8.415 23.925 3.53-1.177z" fill="#fff"/><path d="M75.814 96.757l-30.722 1.23.148 3.706 30.722-1.229-.148-3.707z" fill="#E54323"/><path fill-rule="evenodd" clip-rule="evenodd" d="M47.021 99.394l-5.755-23.67-3.637.868 5.755 23.671 3.637-.87z" fill="#E54323"/></svg>