<svg width="92" height="92" fill="none" xmlns="http://www.w3.org/2000/svg"><path d="M45.099 1.875a1 1 0 011.802 0l1.95 4.057a1 1 0 001.708.158l2.663-3.63a1 1 0 011.772.331l1.172 4.347a1 1 0 001.65.47l3.284-3.08a1 1 0 011.68.652l.354 4.488a1 1 0 001.535.764l3.794-2.423a1 1 0 011.532.95l-.477 4.475a1 1 0 001.368 1.034l4.175-1.684a1 1 0 011.332 1.214l-1.292 4.312a1 1 0 001.156 1.268l4.413-.889a1 1 0 011.086 1.439l-2.062 4.001a1 1 0 00.903 1.458l4.5-.062a1 1 0 01.804 1.613l-2.762 3.555a1 1 0 00.62 1.599l4.435.766a1 1 0 01.494 1.733l-3.369 2.987a1 1 0 00.315 1.685l4.22 1.568a1 1 0 01.166 1.795l-3.86 2.317a1 1 0 000 1.714l3.86 2.317a1 1 0 01-.166 1.795l-4.22 1.568a1 1 0 00-.315 1.685l3.369 2.987a1 1 0 01-.494 1.733l-4.436.766a1 1 0 00-.62 1.6l2.763 3.554a1 1 0 01-.803 1.613l-4.501-.062a1 1 0 00-.903 1.458l2.062 4.001a1 1 0 01-1.086 1.439l-4.413-.889A1 1 0 0075.1 73.69l1.292 4.312a1 1 0 01-1.332 1.214l-4.175-1.684a1 1 0 00-1.368 1.034l.477 4.476a1 1 0 01-1.532.949l-3.794-2.423a1 1 0 00-1.535.764l-.354 4.488a1 1 0 01-1.68.651l-3.285-3.078a1 1 0 00-1.65.47l-1.171 4.346a1 1 0 01-1.772.33L50.56 85.91a1 1 0 00-1.707.158l-1.95 4.057a1 1 0 01-1.803 0l-1.95-4.057a1 1 0 00-1.708-.158l-2.663 3.63a1 1 0 01-1.772-.332l-1.172-4.346a1 1 0 00-1.65-.47l-3.284 3.08a1 1 0 01-1.68-.652l-.354-4.487a1 1 0 00-1.535-.765l-3.794 2.423a1 1 0 01-1.532-.95l.477-4.475a1 1 0 00-1.368-1.034l-4.175 1.684a1 1 0 01-1.332-1.214L16.9 73.69a1 1 0 00-1.156-1.268l-4.413.889a1 1 0 01-1.086-1.439l2.062-4.001a1 1 0 00-.903-1.458l-4.5.062a1 1 0 01-.804-1.613l2.762-3.555a1 1 0 00-.62-1.599l-4.435-.766a1 1 0 01-.494-1.733l3.369-2.987a1 1 0 00-.315-1.685l-4.22-1.568a1 1 0 01-.166-1.795l3.86-2.317a1 1 0 000-1.714l-3.86-2.317a1 1 0 01.166-1.795l4.22-1.568a1 1 0 00.315-1.685l-3.37-2.988a1 1 0 01.494-1.733l4.436-.766a1 1 0 00.62-1.6l-2.763-3.554a1 1 0 01.803-1.613l4.501.062a1 1 0 00.903-1.458l-2.062-4.001a1 1 0 011.086-1.439l4.413.889A1 1 0 0016.9 18.31l-1.292-4.312a1 1 0 011.332-1.214l4.175 1.684a1 1 0 001.368-1.034l-.477-4.476a1 1 0 011.532-.949l3.794 2.423a1 1 0 001.535-.764l.354-4.488a1 1 0 011.68-.651l3.285 3.078a1 1 0 001.65-.47l1.171-4.346a1 1 0 011.772-.33L41.44 6.09a1 1 0 001.707-.158l1.95-4.057z" fill="#E54323"/><path d="M18.34 38.434a1 1 0 00-1 1v5.492a.756.756 0 101.512 0v-4.141a1 1 0 011-1h1.127a1 1 0 011 1v4.142a.756.756 0 101.512 0v-5.492a1 1 0 00-1-1H18.34zm7.831 0a1 1 0 00-1 1v5.492a.756.756 0 101.513 0v-.842a1 1 0 011-1h.797c1.664 0 2.619-.873 2.619-2.345 0-1.452-.955-2.304-2.62-2.304h-2.309zm1.508 3.32a.995.995 0 110-1.99h.588c.934 0 1.28.345 1.28.995 0 .64-.346.995-1.28.995h-.588zm7.937-3.451c-2.305 0-3.533 1.624-3.533 3.756 0 2.132 1.228 3.756 3.533 3.756 2.304 0 3.532-1.624 3.532-3.756 0-2.132-1.228-3.756-3.532-3.756zm0 6.162c-1.34 0-1.98-1.066-1.98-2.406s.64-2.406 1.98-2.406c1.36 0 1.98 1.066 1.98 2.406s-.62 2.406-1.98 2.406zm8.914.815a.737.737 0 101.31-.673l-1.202-2.312a1 1 0 01-.002-.92l1.005-1.946a.682.682 0 00-1.21-.629l-1.127 2.156a.258.258 0 01-.46-.003l-1.084-2.138a.695.695 0 00-1.242.626l.99 1.976a1 1 0 01-.008.913l-1.209 2.302a.718.718 0 101.273.663l1.27-2.458a.257.257 0 01.459.002l1.236 2.44zm5.996-6.977c-2.304 0-3.533 1.624-3.533 3.756 0 2.132 1.229 3.756 3.533 3.756s3.533-1.624 3.533-3.756c0-2.132-1.228-3.756-3.533-3.756zm0 6.162c-1.34 0-1.98-1.066-1.98-2.406s.64-2.406 1.98-2.406c1.36 0 1.98 1.066 1.98 2.406s-.62 2.406-1.98 2.406zm11.211-.132a.518.518 0 01-.518-.518v-4.38a1 1 0 00-1-1h-3.055a1 1 0 00-1 1v.593c0 1.922-.311 3.196-.734 4.06a.447.447 0 01-.406.245.474.474 0 00-.474.474v1.916a.736.736 0 001.472 0v-.152c0-.49.397-.888.888-.888h2.985c.49 0 .888.398.888.888v.152a.736.736 0 101.472 0V44.85a.518.518 0 00-.518-.517zm-1.99-1a1 1 0 01-1 1H58.5c-.754 0-1.288-.835-1.14-1.575a12.03 12.03 0 00.206-2.334.64.64 0 01.64-.64h.542a1 1 0 011 1v2.549zm4.298-4.899a.705.705 0 00-.706.706v5.543a1 1 0 001 1h.36a1 1 0 00.89-.541l2.344-4.538a.164.164 0 01.31.076v4.292a.71.71 0 001.42 0v-5.538a1 1 0 00-1-1h-.43a1 1 0 00-.89.542L65.06 43.4a.164.164 0 01-.31-.075V39.14a.706.706 0 00-.705-.706zm12.635.666a.665.665 0 00-.665-.666h-4.69a.665.665 0 000 1.33h.588a1 1 0 011 1v4.162a.756.756 0 001.513 0v-4.162a1 1 0 011-1h.589a.665.665 0 00.665-.665zM22.562 56.058c-.376 0-.677.285-.908.582-.256.33-.662.514-1.188.514-1.3 0-1.919-1.066-1.919-2.406s.62-2.406 1.919-2.406c.476 0 .834.122 1.075.367.254.257.544.527.906.527.506 0 .896-.473.637-.908-.489-.82-1.413-1.336-2.618-1.336-2.203 0-3.472 1.533-3.472 3.756 0 2.224 1.259 3.756 3.472 3.756 1.32 0 2.29-.61 2.755-1.56.215-.44-.17-.886-.659-.886zm4.628.964a.853.853 0 110-1.705h1.482a.66.66 0 000-1.32h-1.574a.761.761 0 010-1.523h2.411a.675.675 0 100-1.35h-3.685a1 1 0 00-1 1v5.248a1 1 0 001 1h3.797a.675.675 0 100-1.35H27.19zm5.101-5.898a.706.706 0 00-.706.706v5.542a1 1 0 001 1h.361a1 1 0 00.888-.54l2.345-4.538a.164.164 0 01.31.075v4.293a.71.71 0 001.42 0v-5.538a1 1 0 00-1-1h-.43a1 1 0 00-.889.541l-2.284 4.426a.164.164 0 01-.31-.075V51.83a.706.706 0 00-.705-.706zm3.75-1.929c-.285 0-.506.242-.717.433-.134.122-.327.197-.581.197-.255 0-.448-.072-.582-.19-.215-.19-.437-.44-.724-.44-.33 0-.601.291-.469.594.268.615.884.97 1.775.97.887 0 1.5-.353 1.771-.963.135-.306-.14-.6-.474-.6zm3.997 1.929a.756.756 0 00-.757.756v1.549c0 1.147.102 2.314 2.66 2.314.117 0 .24-.003.365-.01.644-.03 1.25.454 1.25 1.099v.784a.756.756 0 101.512 0V51.88a.756.756 0 10-1.513 0v1.594c0 .447-.298.85-.743.894a5.08 5.08 0 01-.505.025c-1.503 0-1.513-.61-1.513-1.198V51.88a.756.756 0 00-.756-.756zm11.322 6.732a.726.726 0 101.386-.43l-1.79-5.606a1 1 0 00-.953-.696h-.883a1 1 0 00-.953.697l-1.79 5.63a.707.707 0 101.35.418l.224-.744a1 1 0 01.957-.712h1.274a1 1 0 01.958.712l.22.73zm-2.113-5.066a.3.3 0 01.576 0l.412 1.36a.73.73 0 11-1.4 0l.412-1.36zm9.917 3.268c-.377 0-.678.285-.908.582-.256.33-.662.514-1.188.514-1.3 0-1.919-1.066-1.919-2.406s.62-2.406 1.919-2.406c.475 0 .834.122 1.075.367.254.257.544.527.906.527.506 0 .896-.473.636-.908-.488-.82-1.412-1.336-2.617-1.336-2.203 0-3.472 1.533-3.472 3.756 0 2.224 1.259 3.756 3.472 3.756 1.32 0 2.29-.61 2.755-1.56.215-.44-.17-.886-.66-.886z" fill="#fff"/></svg>