<?xml version="1.0" encoding="UTF-8"?><!DOCTYPE svg PUBLIC "-//W3C//DTD SVG 1.1//EN" "http://www.w3.org/Graphics/SVG/1.1/DTD/svg11.dtd"><svg xmlns="http://www.w3.org/2000/svg" xmlns:xlink="http://www.w3.org/1999/xlink"><symbol id="ico-color-auth-fb" viewBox="0 0 32 32">
    <path d="M32 16.098C32 7.208 24.837 0 16 0S0 7.207 0 16.098C0 24.133 5.85 30.792 13.5 32V20.751H9.437v-4.653H13.5V12.55c0-4.034 2.389-6.263 6.043-6.263 1.75 0 3.582.315 3.582.315v3.961h-2.017c-1.988 0-2.608 1.241-2.608 2.515v3.019h4.438l-.71 4.653H18.5V32C26.15 30.792 32 24.133 32 16.098z" fill="#2467C6"/>
</symbol><symbol id="ico-color-auth-vk" viewBox="0 0 32 32">
    <circle cx="16" cy="16" r="16" fill="#678CCA"/>
    <path d="M12.536 11.795c.094-.254.267-.41.487-.524.417-.213.866-.279 1.315-.27.645.016 1.29.057 1.928.082.29.016.574.024.85.139.409.172.621.491.637.942.008.36-.04.729-.055 1.097-.024.778-.055 1.556-.055 2.334 0 .246.102.492.165.737.016.066.063.131.102.188.157.23.205.23.425.082.41-.27.716-.638.992-1.048.377-.557.708-1.13.991-1.736.276-.606.559-1.22.819-1.835.125-.31.33-.442.653-.434 1.204.009 2.416.009 3.62 0 .385 0 .66.344.574.737a3.878 3.878 0 01-.488 1.147 20.6 20.6 0 01-2.022 2.866c-.268.312-.504.647-.63 1.057-.134.442-.047.835.268 1.163.559.581 1.14 1.146 1.684 1.744.322.352.606.745.889 1.139.181.245.299.54.268.868-.04.368-.213.556-.567.573-.677.04-1.361.065-2.046.098-.393.017-.795.041-1.188.058-.315.016-.598-.107-.866-.27-.425-.255-.787-.599-1.133-.959-.362-.369-.7-.753-.976-1.204-.173-.286-.653-.442-.952-.32-.236.09-.346.287-.37.533-.04.41-.063.81-.094 1.22-.048.5-.347.811-.827.877a8.3 8.3 0 01-2.809-.107c-.685-.139-1.275-.483-1.834-.9-.77-.566-1.424-1.262-2.038-1.99a12.986 12.986 0 01-.865-1.221c-.874-1.335-1.7-2.694-2.416-4.128-.346-.688-.693-1.367-.874-2.129-.039-.172-.063-.344-.094-.516-.016-.082.016-.147.087-.172.196-.065.393-.155.59-.164.637-.024 1.282-.024 1.92-.032.275 0 .55.024.826.016.37-.016.622.156.78.483.156.328.298.664.448.991.543 1.18 1.133 2.334 1.904 3.374.11.156.283.279.449.377.196.115.37.057.488-.147.141-.238.204-.508.212-.787.008-.786.031-1.572.024-2.358-.008-.811-.394-1.351-1.134-1.646a.123.123 0 01-.063-.025z" fill="#fff"/>
</symbol></svg>