<?xml version="1.0" encoding="UTF-8"?><!DOCTYPE svg PUBLIC "-//W3C//DTD SVG 1.1//EN" "http://www.w3.org/Graphics/SVG/1.1/DTD/svg11.dtd"><svg xmlns="http://www.w3.org/2000/svg" xmlns:xlink="http://www.w3.org/1999/xlink"><symbol id="ico-mono-arrow-fat" viewBox="0 0 16 26">
    <path fill-rule="evenodd" clip-rule="evenodd" d="M14.909 14.708c-.015.015-.035.019-.05.033L4.492 25.109a2.4 2.4 0 01-3.394-3.395l8.711-8.711-8.711-8.711A2.4 2.4 0 014.492.898l10.367 10.367c.015.014.035.018.05.033.47.47.704 1.088.702 1.705a2.393 2.393 0 01-.702 1.705z"/>
</symbol><symbol id="ico-mono-arrow-next" viewBox="0 0 14 24">
    <path d="M3.002 1.06A1.5 1.5 0 00.88 3.183l8.76 8.76L.88 20.7a1.5 1.5 0 002.122 2.122l9.466-9.467a2 2 0 000-2.828L3.002 1.06z"/>
</symbol><symbol id="ico-mono-arrow-prev" viewBox="0 0 14 24">
    <path d="M10.881 1.06a1.5 1.5 0 112.121 2.122l-8.759 8.76 8.76 8.758a1.5 1.5 0 01-2.122 2.122l-9.466-9.467a2 2 0 010-2.828L10.88 1.06z"/>
</symbol><symbol id="ico-mono-arrow-right-end" viewBox="0 0 9 16">
    <path fill-rule="evenodd" clip-rule="evenodd" d="M2.343.934l6.364 6.482c.39.398.39 1.042 0 1.44l-6.364 6.482a.987.987 0 01-1.414 0 1.032 1.032 0 010-1.44l4.656-4.744V7.118L.93 2.375a1.032 1.032 0 010-1.44.987.987 0 011.414 0z"/>
</symbol><symbol id="ico-mono-calendar" viewBox="0 0 21 22">
    <path fill-rule="evenodd" clip-rule="evenodd" d="M3.296 4c-.64 0-1.086.487-1.086 1v14c0 .513.446 1 1.086 1h14.605c.64 0 1.087-.487 1.087-1V5c0-.513-.446-1-1.087-1H3.296zM.21 5c0-1.696 1.422-3 3.086-3h14.605c1.665 0 3.087 1.304 3.087 3v14c0 1.696-1.422 3-3.087 3H3.296C1.632 22 .21 20.696.21 19V5z"/>
    <path fill-rule="evenodd" clip-rule="evenodd" d="M14.771 0a1 1 0 011 1v4a1 1 0 11-2 0V1a1 1 0 011-1z"/>
    <path fill-rule="evenodd" clip-rule="evenodd" d="M6.426 0a1 1 0 011 1v4a1 1 0 11-2 0V1a1 1 0 011-1z"/>
    <path fill-rule="evenodd" clip-rule="evenodd" d="M.21 9a1 1 0 011-1h18.778a1 1 0 110 2H1.21a1 1 0 01-1-1z"/>
</symbol><symbol id="ico-mono-caret" viewBox="0 0 9 8">
    <path d="M5.366 7.5a1 1 0 01-1.732 0L.603 2.25a1 1 0 01.866-1.5H7.53a1 1 0 01.866 1.5L5.366 7.5z"/>
</symbol><symbol id="ico-mono-close" viewBox="0 0 20 20">
    <path fill-rule="evenodd" clip-rule="evenodd" d="M.47.47a.75.75 0 011.06 0L10 8.94 18.47.47a.75.75 0 111.06 1.06L11.06 10l8.47 8.47a.75.75 0 11-1.06 1.06L10 11.06l-8.47 8.47a.75.75 0 01-1.06-1.06L8.94 10 .47 1.53a.75.75 0 010-1.06z"/>
</symbol><symbol id="ico-mono-email" viewBox="0 0 49 35">
    <g fill-rule="evenodd">
        <path d="M44.49 0c2.338 0 4.13 1.781 4.13 3.813v1.272l-5.402 3.813-19.067 13.029L5.402 8.897v26.059h-1.27C1.791 34.956 0 33.175 0 31.143V3.813C0 1.783 1.793.001 4.131 0l20.02 14.936L44.49 0z" fill-rule="nonzero"/>
        <path d="M48.62 5.085v26.058c-.092 2.737-1.316 3.765-5.402 3.813V8.898l5.403-3.813z" fill-rule="nonzero"/>
        <path d="M3.813 0h40.765v5.461H3.813z"/>
        <path d="M4.767 29.554h38.451v5.402H4.767z"/>
    </g>
</symbol><symbol id="ico-mono-location-outline" viewBox="0 0 20 24">
    <path fill-rule="evenodd" clip-rule="evenodd" d="M10 2a8 8 0 00-8 8c0 3.098 2.016 6.104 4.226 8.437A29.418 29.418 0 0010 21.773a29.412 29.412 0 003.774-3.335C15.984 16.103 18 13.097 18 10a8 8 0 00-8-8zm0 21l-.555.832-.003-.002-.007-.005-.023-.015-.082-.057c-.071-.05-.174-.12-.302-.214a31.428 31.428 0 01-4.254-3.727C2.484 17.397 0 13.903 0 10a10 10 0 0120 0c0 3.902-2.484 7.396-4.774 9.813a31.433 31.433 0 01-4.254 3.726 18.887 18.887 0 01-.384.27l-.023.016-.007.005-.002.001s-.001.001-.556-.831zm0 0l.555.832a1.001 1.001 0 01-1.11 0L10 23z"/>
    <path fill-rule="evenodd" clip-rule="evenodd" d="M10 8a2 2 0 100 4 2 2 0 000-4zm-4 2a4 4 0 118 0 4 4 0 01-8 0z"/>
</symbol><symbol id="ico-mono-location" viewBox="0 0 32 42">
    <path fill-rule="evenodd" clip-rule="evenodd" d="M16 42s16-17.163 16-26S24.837 0 16 0 0 7.163 0 16s16 26 16 26zm0-23a4 4 0 100-8 4 4 0 000 8z"/>
</symbol><symbol id="ico-mono-mainEventTitleDecor" viewBox="0 0 150 73">
    <path d="M149.143 30.858h-26.354V3.787h-13.907v27.072h-26.38V43.75h26.38v27.072h13.907V43.75h26.354V30.859z"/>
    <path d="M63.151 47.018a2.477 2.477 0 01-.742 0l-9.131-2.747a17.818 17.818 0 01-4.504 6.038l4.256 6.582a2.476 2.476 0 01-.718 3.564c-.423.266-.91.411-1.41.42a2.475 2.475 0 01-2.153-1.163l-4.355-6.681a17.322 17.322 0 01-5.147 1.534v8.636a2.475 2.475 0 01-4.27 1.707 2.473 2.473 0 01-.68-1.83V54.44a18.632 18.632 0 01-5.344-1.633l-2.871 4.281a2.473 2.473 0 01-2.128 1.114 2.475 2.475 0 01-1.435-.446 2.475 2.475 0 01-.668-3.563l2.746-4.182a18.756 18.756 0 01-2.895-3.366l-8.76 4.207a2.475 2.475 0 01-1.114.248 2.475 2.475 0 01-2.3-1.46 2.475 2.475 0 011.212-3.44l8.735-4.207a18.98 18.98 0 01-.817-5.469c-.001-.912.073-1.822.223-2.722l-9.156-2.746a2.623 2.623 0 01-1.707-3.217 2.474 2.474 0 013.192-1.708l9.18 2.846a17.916 17.916 0 014.504-6.063l-4.28-6.582a2.476 2.476 0 01.742-3.563 2.474 2.474 0 013.538.742l4.281 6.582a16.998 16.998 0 015.147-1.534V9.924a2.474 2.474 0 114.95 0v8.636c1.845.272 3.64.823 5.32 1.633l2.895-4.28a2.474 2.474 0 013.539-.669 2.475 2.475 0 01.693 3.564l-2.896 4.28a17.325 17.325 0 012.995 3.415l8.76-4.231a2.574 2.574 0 112.202 4.652l-8.735 4.207c.54 1.781.814 3.632.816 5.493.001.904-.073 1.806-.222 2.698l9.13 2.746a2.5 2.5 0 11-.717 4.95h.1zM36.723 0A36.5 36.5 0 1073 36.5 36.376 36.376 0 0036.723 0z"/>
</symbol><symbol id="ico-mono-search" viewBox="0 0 16 16">
    <path fill-rule="evenodd" clip-rule="evenodd" d="M7.25 2.25a5 5 0 100 10 5 5 0 000-10zm-7 5a7 7 0 1114 0 7 7 0 01-14 0z"/>
    <path fill-rule="evenodd" clip-rule="evenodd" d="M10.78 10.78a1 1 0 011.415 0l3.262 3.263a1 1 0 01-1.414 1.414l-3.263-3.262a1 1 0 010-1.415z"/>
</symbol><symbol id="ico-mono-social-facebook" viewBox="0 0 24 24">
    <path d="M24 12c0-6.627-5.373-12-12-12S0 5.373 0 12c0 5.99 4.388 10.954 10.125 11.854V15.47H7.078V12h3.047V9.356c0-3.007 1.792-4.668 4.533-4.668 1.312 0 2.686.234 2.686.234v2.953H15.83c-1.491 0-1.956.925-1.956 1.875V12h3.328l-.532 3.469h-2.796v8.385C19.612 22.954 24 17.99 24 12z"/>
</symbol><symbol id="ico-mono-social-instagram" viewBox="0 0 24 24">
    <path d="M12 2.16c3.206 0 3.586.015 4.847.071 1.172.052 1.805.249 2.226.413a3.71 3.71 0 011.379.895c.421.422.68.82.895 1.378.164.422.36 1.06.412 2.227.057 1.265.07 1.645.07 4.847 0 3.206-.013 3.586-.07 4.846-.051 1.172-.248 1.805-.412 2.227-.216.558-.478.961-.895 1.378a3.69 3.69 0 01-1.379.895c-.421.165-1.059.361-2.226.413-1.266.056-1.645.07-4.847.07-3.206 0-3.586-.014-4.847-.07-1.172-.052-1.805-.248-2.226-.413a3.71 3.71 0 01-1.379-.895 3.691 3.691 0 01-.895-1.378c-.164-.422-.36-1.06-.412-2.227-.057-1.265-.07-1.645-.07-4.846 0-3.207.013-3.586.07-4.847.051-1.172.248-1.805.412-2.227.216-.558.478-.96.895-1.378.422-.422.82-.68 1.379-.895.421-.164 1.059-.361 2.226-.413 1.261-.056 1.64-.07 4.847-.07zM12 0C8.742 0 8.334.014 7.055.07 5.78.127 4.903.333 4.144.628a5.857 5.857 0 00-2.128 1.388A5.88 5.88 0 00.628 4.139C.333 4.903.127 5.775.07 7.05.014 8.334 0 8.742 0 12s.014 3.666.07 4.945c.057 1.275.263 2.152.558 2.911.31.792.717 1.463 1.388 2.128a5.866 5.866 0 002.123 1.383c.764.296 1.636.502 2.911.558 1.28.056 1.688.07 4.945.07 3.258 0 3.666-.014 4.946-.07 1.275-.056 2.151-.262 2.91-.558a5.866 5.866 0 002.124-1.383 5.866 5.866 0 001.383-2.123c.295-.764.501-1.636.558-2.911.056-1.28.07-1.688.07-4.945 0-3.258-.014-3.666-.07-4.946-.057-1.275-.263-2.151-.558-2.91a5.62 5.62 0 00-1.374-2.133A5.866 5.866 0 0019.861.633C19.097.338 18.225.13 16.95.075 15.666.015 15.258 0 12 0z"/>
    <path d="M12 5.836A6.166 6.166 0 005.836 12 6.166 6.166 0 0012 18.164 6.166 6.166 0 0018.164 12 6.166 6.166 0 0012 5.836zm0 10.162A3.999 3.999 0 1112.001 8 3.999 3.999 0 0112 15.998z"/>
    <path d="M19.847 5.592a1.44 1.44 0 11-2.879 0 1.44 1.44 0 012.879 0z"/>
</symbol><symbol id="ico-mono-social-tiktok" viewBox="0 0 24 24">
    <path fill-rule="evenodd" clip-rule="evenodd" d="M12 0c6.628 0 12 5.372 12 12s-5.372 12-12 12S0 18.628 0 12 5.372 0 12 0zm2.695 4.97c0 .214.064 3.32 3.322 3.513l.001 2.399c-.246.014-2.145-.124-3.326-1.177l-.004 4.67c.045 3.242-2.34 5.215-5.46 4.533-5.376-1.608-3.59-9.583 1.81-8.73l.001 2.575c-2.23-.328-2.976 1.527-2.384 2.856.54 1.21 2.76 1.471 3.535-.235a4.51 4.51 0 00.132-1.142V4.958l2.373.011z"/>
</symbol><symbol id="ico-mono-social-vk" viewBox="0 0 25 15">
    <path d="M8.17.994c.117-.318.334-.512.61-.655C9.3.072 9.86-.01 10.421 0c.806.02 1.613.071 2.41.102.364.02.718.03 1.062.174.512.215.777.614.797 1.177.01.45-.05.912-.069 1.372-.03.973-.069 1.945-.069 2.918 0 .307.128.614.207.921.02.082.079.164.128.236.196.286.255.286.53.102.512-.338.896-.798 1.24-1.31.472-.696.886-1.413 1.24-2.17.344-.758.698-1.526 1.023-2.294.157-.389.413-.553.816-.542 1.505.01 3.02.01 4.525 0 .482 0 .826.43.718.921-.118.522-.344.993-.61 1.433a25.762 25.762 0 01-2.528 3.583c-.334.39-.63.809-.787 1.32-.167.554-.059 1.045.335 1.454.698.727 1.426 1.434 2.105 2.181.403.44.757.932 1.111 1.423.226.307.374.676.335 1.085-.05.46-.266.696-.709.717-.845.05-1.701.082-2.557.123-.492.02-.994.05-1.485.071-.394.02-.748-.133-1.082-.338-.532-.317-.984-.747-1.417-1.197-.452-.461-.875-.942-1.22-1.505-.216-.358-.816-.553-1.19-.4-.295.113-.433.359-.462.666-.05.512-.079 1.013-.118 1.525-.06.625-.433 1.014-1.033 1.096-1.18.163-2.351.102-3.512-.134-.855-.174-1.593-.604-2.292-1.126-.964-.706-1.78-1.576-2.547-2.487a16.237 16.237 0 01-1.082-1.525c-1.092-1.67-2.125-3.368-3.02-5.16-.433-.86-.866-1.71-1.092-2.662-.05-.215-.079-.43-.118-.645-.02-.102.02-.184.108-.215C.36.81.605.697.851.687 1.648.656 2.454.656 3.25.646c.344 0 .689.03 1.033.02.462-.02.777.195.974.604.196.41.373.83.56 1.239.68 1.474 1.417 2.917 2.38 4.218.139.194.355.348.562.47.245.144.462.072.61-.184a2.01 2.01 0 00.265-.983c.01-.982.04-1.965.03-2.948-.01-1.013-.492-1.689-1.417-2.057-.02 0-.05-.01-.079-.031z"/>
</symbol><symbol id="ico-mono-social-youtube" viewBox="0 0 24 18">
    <path d="M23.76 4.2s-.233-1.655-.955-2.381C21.89.863 20.869.858 20.4.802 17.044.558 12.005.558 12.005.558h-.01S6.956.558 3.6.802c-.469.056-1.49.06-2.405 1.017C.473 2.545.244 4.2.244 4.2S0 6.145 0 8.086v1.819c0 1.94.24 3.886.24 3.886s.233 1.654.95 2.38c.915.957 2.115.924 2.65 1.027 1.92.183 8.16.24 8.16.24s5.044-.01 8.4-.249c.469-.056 1.49-.06 2.405-1.017.722-.727.956-2.381.956-2.381S24 11.85 24 9.905V8.086c0-1.94-.24-3.886-.24-3.886zM9.52 12.113V5.367l6.483 3.385-6.483 3.36z"/>
</symbol><symbol id="ico-mono-user" viewBox="0 0 14 16">
    <path fill-rule="evenodd" clip-rule="evenodd" d="M1.172 10.422A4 4 0 014 9.25h6a4 4 0 014 4v1.5a1 1 0 11-2 0v-1.5a2 2 0 00-2-2H4a2 2 0 00-2 2v1.5a1 1 0 11-2 0v-1.5a4 4 0 011.172-2.828z"/>
    <path fill-rule="evenodd" clip-rule="evenodd" d="M7 2.25a2 2 0 100 4 2 2 0 000-4zm-4 2a4 4 0 118 0 4 4 0 01-8 0z"/>
</symbol></svg>